<svg xmlns="http://www.w3.org/2000/svg" width="64" height="64" viewBox="0 0 64 64">
  <defs>
    <linearGradient id="bg" x1="10" y1="6" x2="56" y2="60" gradientUnits="userSpaceOnUse">
      <stop offset="0" stop-color="#22c55e"/>
      <stop offset="0.45" stop-color="#06b6d4"/>
      <stop offset="1" stop-color="#3b82f6"/>
    </linearGradient>
    <linearGradient id="ink" x1="18" y1="18" x2="46" y2="48" gradientUnits="userSpaceOnUse">
      <stop offset="0" stop-color="rgba(255,255,255,0.95)"/>
      <stop offset="1" stop-color="rgba(255,255,255,0.70)"/>
    </linearGradient>
  </defs>

  <!-- Background -->
  <circle cx="32" cy="32" r="30" fill="url(#bg)"/>

  <!-- Neural/circuit motif -->
  <g opacity="0.95" stroke="url(#ink)" stroke-width="2" fill="none" stroke-linecap="round" stroke-linejoin="round">
    <path d="M18 26 L26 22 L32 26 L38 22 L46 26" />
    <path d="M18 38 L26 42 L32 38 L38 42 L46 38" />
    <path d="M26 22 L26 42" />
    <path d="M38 22 L38 42" />
    <path d="M24 32 L40 32" />
  </g>
  <g fill="rgba(255,255,255,0.95)">
    <circle cx="18" cy="26" r="3.2"/>
    <circle cx="26" cy="22" r="3.2"/>
    <circle cx="32" cy="26" r="3.2"/>
    <circle cx="38" cy="22" r="3.2"/>
    <circle cx="46" cy="26" r="3.2"/>

    <circle cx="18" cy="38" r="3.2"/>
    <circle cx="26" cy="42" r="3.2"/>
    <circle cx="32" cy="38" r="3.2"/>
    <circle cx="38" cy="42" r="3.2"/>
    <circle cx="46" cy="38" r="3.2"/>
  </g>

  <!-- Subtle highlight -->
  <path d="M12 24c10-16 34-16 40-1" fill="none" stroke="rgba(255,255,255,0.25)" stroke-width="6" stroke-linecap="round"/>

  <!-- Monogram -->
  <text
    x="32"
    y="41"
    text-anchor="middle"
    font-family="system-ui, -apple-system, Segoe UI, Roboto, Arial, sans-serif"
    font-size="22"
    font-weight="900"
    fill="#ffffff"
    letter-spacing="1"
  >LB</text>
</svg>

